<?xml version="1.0" encoding="UTF-8" standalone="no"?>
<!-- Created with Inkscape (http://www.inkscape.org/) -->

<svg
   width="102.50299mm"
   height="60.81953mm"
   viewBox="0 0 102.50299 60.81953"
   version="1.1"
   id="svg1"
   xmlns="http://www.w3.org/2000/svg"
   xmlns:svg="http://www.w3.org/2000/svg">
  <defs
     id="defs1">
    <clipPath
       clipPathUnits="userSpaceOnUse"
       id="clipPath7">
      <path
         d="M 0,595.276 H 841.89 V 0 H 0 Z"
         transform="translate(-370.11431,-414.59101)"
         id="path7" />
    </clipPath>
    <clipPath
       clipPathUnits="userSpaceOnUse"
       id="clipPath9">
      <path
         d="M 0,595.276 H 841.89 V 0 H 0 Z"
         transform="translate(-377.80471,-427.35571)"
         id="path9" />
    </clipPath>
    <clipPath
       clipPathUnits="userSpaceOnUse"
       id="clipPath11">
      <path
         d="M 0,595.276 H 841.89 V 0 H 0 Z"
         transform="translate(-525.19732,-415.14961)"
         id="path11" />
    </clipPath>
    <clipPath
       clipPathUnits="userSpaceOnUse"
       id="clipPath13">
      <path
         d="M 0,595.276 H 841.89 V 0 H 0 Z"
         transform="translate(-445.41601,-425.04661)"
         id="path13" />
    </clipPath>
  </defs>
  <g
     id="layer1"
     transform="translate(-53.974998,-118.00418)">
    <path
       id="path1"
       d="m 61.763625,174.72054 -7.788627,4.10316 13.150849,-51.90949 3.181703,-1.03787 z"
       style="fill:#ac1c21;fill-opacity:1;fill-rule:nonzero;stroke:none;stroke-width:0.352778" />
    <path
       id="path2"
       d="m 85.593339,152.91722 h -3.739797 l 5.874808,-30.28033 2.936169,-0.34713 z"
       style="fill:#ac1c21;fill-opacity:1;fill-rule:nonzero;stroke:none;stroke-width:0.352778" />
    <path
       id="path3"
       d="m 111.53595,123.48543 -0.86924,23.42444 -2.15653,-24.68139 -2.75908,-1.98719 4.07035,41.6447 h 2.18087 l 1.82386,-37.2946 z"
       style="fill:#ac1c21;fill-opacity:1;fill-rule:nonzero;stroke:none;stroke-width:0.352778" />
    <path
       id="path4"
       d="m 130.75856,153.04867 -3.3147,0.1838 -1.49119,-28.23281 1.87007,-1.48907 z"
       style="fill:#ac1c21;fill-opacity:1;fill-rule:nonzero;stroke:none;stroke-width:0.352778" />
    <path
       id="path5"
       d="m 148.71336,174.72054 7.76464,4.10316 -13.14873,-51.90949 -3.15983,-1.03787 z"
       style="fill:#ac1c21;fill-opacity:1;fill-rule:nonzero;stroke:none;stroke-width:0.352778" />
    <path
       id="path6"
       d="m 0,0 c -6.753,6.396 -15.709,9.959 -25.354,10.046 -9.59,0.195 -18.732,-3.333 -25.609,-9.605 l -4.917,4.674 c 8.131,7.407 18.857,11.473 30.209,11.473 h 0.379 c 11.476,-0.099 22.264,-4.366 30.27,-12.01 z"
       style="fill:#ac1c21;fill-opacity:1;fill-rule:nonzero;stroke:none"
       transform="matrix(0.35277776,0,0,-0.35277776,86.839103,128.70993)"
       clip-path="url(#clipPath7)" />
    <path
       id="path8"
       d="m 0,0 -5.17,4.435 c 8.386,8.469 19.744,13.239 31.22,13.146 10.658,-0.09 20.495,-4.332 27.751,-11.93 L 48.5,1.31 C 42.635,7.507 34.566,10.961 25.926,11.045 H 25.609 C 16.15,11.045 7.063,7.131 0,0"
       style="fill:#ac1c21;fill-opacity:1;fill-rule:nonzero;stroke:none"
       transform="matrix(0.35277776,0,0,-0.35277776,89.552106,124.20682)"
       clip-path="url(#clipPath9)" />
    <path
       id="path10"
       d="M 0,0 C -5.046,4.78 -11.73,7.458 -18.918,7.544 -26.043,7.601 -32.796,5.108 -37.904,0.469 l -4.916,4.667 c 6.429,5.881 15.008,9.115 24.026,8.95 9.019,-0.108 17.473,-3.484 23.778,-9.505 z"
       style="fill:#ac1c21;fill-opacity:1;fill-rule:nonzero;stroke:none"
       transform="matrix(0.35277776,0,0,-0.35277776,141.54894,128.51286)"
       clip-path="url(#clipPath11)" />
    <path
       id="path12"
       d="M 0,0 -5.232,4.354 C 1.073,10.946 9.459,14.428 18.291,14.443 26.931,14.366 35.006,10.759 40.934,4.305 L 35.571,0.047 C 30.966,5.053 24.79,7.839 18.229,7.898 18.167,7.904 18.037,7.904 17.975,7.904 11.29,7.904 4.859,5.102 0,0"
       style="fill:#ac1c21;fill-opacity:1;fill-rule:nonzero;stroke:none"
       transform="matrix(0.35277776,0,0,-0.35277776,113.40387,125.02142)"
       clip-path="url(#clipPath13)" />
  </g>
</svg>
